HIERARCHY
ROOT Hips
{
    OFFSET 0.000000 0.000000 0.000000
    CHANNELS 6 Xposition Yposition Zposition Zrotation Xrotation Yrotation
    JOINT Spine
    {
        OFFSET -0.000000 0.083210 0.000000
        CHANNELS 3 Zrotation Xrotation Yrotation
        JOINT Spine1
        {
            OFFSET -0.000000 0.256334 0.000000
            CHANNELS 3 Zrotation Xrotation Yrotation
            JOINT Neck
            {
                OFFSET -0.000000 0.275576 0.002912
                CHANNELS 3 Zrotation Xrotation Yrotation
                JOINT Head
                {
                    OFFSET -0.000000 0.157287 0.020295
                    CHANNELS 3 Zrotation Xrotation Yrotation
                    End Site
                    {
                        OFFSET -0.000000 0.202951 0.000000
                    }
                }
            }
            JOINT LeftShoulder
            {
                OFFSET 0.041044 0.235234 -0.000041
                CHANNELS 3 Zrotation Xrotation Yrotation
                JOINT LeftArm
                {
                    OFFSET 0.117964 0.000000 0.000000
                    CHANNELS 3 Zrotation Xrotation Yrotation
                    JOINT LeftForeArm
                    {
                        OFFSET 0.291248 0.000000 0.000000
                        CHANNELS 3 Zrotation Xrotation Yrotation
                        JOINT LeftHand
                        {
                            OFFSET 0.245673 0.000000 0.000000
                            CHANNELS 3 Zrotation Xrotation Yrotation
                            End Site
                            {
                                OFFSET 0.152213 0.000000 0.000000
                            }
                        }
                    }
                }
            }
            JOINT RightShoulder
            {
                OFFSET -0.040052 0.235234 -0.000041
                CHANNELS 3 Zrotation Xrotation Yrotation
                JOINT RightArm
                {
                    OFFSET -0.117964 0.000000 0.000000
                    CHANNELS 3 Zrotation Xrotation Yrotation
                    JOINT RightForeArm
                    {
                        OFFSET -0.291248 0.000000 0.000000
                        CHANNELS 3 Zrotation Xrotation Yrotation
                        JOINT RightHand
                        {
                            OFFSET -0.245673 0.000000 0.000000
                            CHANNELS 3 Zrotation Xrotation Yrotation
                            End Site
                            {
                                OFFSET -0.152213 0.000000 0.000000
                            }
                        }
                    }
                }
            }
        }
    }
    JOINT LeftUpLeg
    {
        OFFSET 0.101475 0.000000 0.000000
        CHANNELS 3 Zrotation Xrotation Yrotation
        JOINT LeftLeg
        {
            OFFSET -0.000000 -0.446535 0.000000
            CHANNELS 3 Zrotation Xrotation Yrotation
            JOINT LeftFoot
            {
                OFFSET -0.000000 -0.400037 0.000000
                CHANNELS 3 Zrotation Xrotation Yrotation
                JOINT LeftToeBase
                {
                    OFFSET -0.000000 -0.065959 0.152213
                    CHANNELS 3 Zrotation Xrotation Yrotation
                    End Site
                    {
                        OFFSET -0.000000 0.000000 0.040590
                    }
                }
            }
        }
    }
    JOINT RightUpLeg
    {
        OFFSET -0.101475 0.000000 0.000000
        CHANNELS 3 Zrotation Xrotation Yrotation
        JOINT RightLeg
        {
            OFFSET -0.000000 -0.446535 0.000000
            CHANNELS 3 Zrotation Xrotation Yrotation
            JOINT RightFoot
            {
                OFFSET -0.000000 -0.400037 0.000000
                CHANNELS 3 Zrotation Xrotation Yrotation
                JOINT RightToeBase
                {
                    OFFSET -0.000000 -0.065959 0.152213
                    CHANNELS 3 Zrotation Xrotation Yrotation
                    End Site
                    {
                        OFFSET -0.000000 0.000000 0.040590
                    }
                }
            }
        }
    }
}
MOTION
Frames:    4
Frame Time:    0.008333
2.927267    0.908865    2.206515    22.136000    -8.163877    -61.583149    -3.035193    4.960263    10.218983    -6.105085    -1.548322    3.279243    2.862406    -14.735691    -5.648602    5.145376    -4.165648    -6.313906    0.972425    10.939627    -0.520524    -76.952034    42.671360    21.170586    18.094658    -10.827727    -80.216087    16.417326    1.629457    -20.164968    -0.577209    4.361274    15.520622    54.528233    41.975414    10.050845    -35.777596    -40.280754    88.374397    -18.923969    -9.120408    13.629596    0.941552    -38.911499    -5.217924    -8.119844    60.044624    12.244864    -6.393185    -3.705142    0.827878    -0.014030    -8.073249    0.911645    2.209173    -4.155983    0.066186    3.363742    29.474239    4.000399    -4.891241    1.031872    -14.390659    -2.140095    -49.776634    -4.421807    
2.906293    0.914358    2.216251    22.177998    -8.464732    -61.690727    -3.361217    4.823463    10.386214    -6.119895    -1.497189    3.334232    2.583711    -14.962680    -5.964193    5.624831    -3.903291    -6.702120    1.161382    11.392106    -1.103664    -77.691940    42.559830    21.554886    18.090658    -11.312174    -80.310303    16.502235    1.157731    -20.067068    -0.912677    4.330221    15.199308    54.608192    42.396812    10.201042    -34.758827    -40.241417    90.242043    -18.762220    -8.968163    13.563867    0.203457    -39.468182    -6.137087    -8.627912    57.184040    12.300932    -7.236973    -3.869895    0.212553    -0.018172    -7.894264    1.071072    1.613961    -1.712468    0.275191    3.326087    26.242582    2.925473    -3.191123    4.453055    -13.012197    -1.999116    -52.049450    -3.937729    
2.885216    0.919603    2.225745    22.250902    -8.664561    -61.667339    -3.605755    4.592215    10.360945    -6.128222    -1.394377    3.330379    2.255291    -15.367520    -6.223453    6.076179    -3.393643    -7.046867    1.214097    11.815426    -1.648409    -78.348366    42.377819    21.871117    18.156879    -11.968557    -80.357147    15.884414    0.671430    -20.063843    -1.189567    4.352768    14.985589    54.593353    42.717319    10.316732    -32.778625    -39.865078    92.810356    -19.322208    -9.224872    13.545658    -0.552752    -39.965260    -7.026458    -8.788378    54.090702    12.381948    -8.135595    -3.605973    -0.602753    -0.010917    -8.465560    0.914926    1.128013    0.547463    0.316218    3.134263    23.139259    2.082914    -1.079039    8.034291    -11.993423    -1.257929    -53.817783    -2.389899    
2.863951    0.924556    2.235045    22.330509    -8.795203    -61.561569    -3.761896    4.286753    10.219164    -6.179514    -1.219241    3.293480    1.976885    -15.924268    -6.408454    6.287917    -2.602628    -7.310114    1.164309    12.303023    -2.153270    -78.741745    42.164219    21.898926    18.246536    -12.713215    -80.415810    15.776111    0.047713    -19.899727    -1.366799    4.528713    14.775089    54.390499    42.884388    10.463445    -30.928007    -39.231686    95.254318    -19.254015    -9.110575    13.542387    -1.233123    -40.271366    -7.848249    -8.606755    50.764179    12.584410    -10.043385    -3.230248    -1.955079    -0.007657    -8.687847    0.767804    0.752128    2.668881    0.333178    2.847746    20.171789    0.815964    1.314899    11.761433    -10.789069    -0.309524    -54.408443    -0.581126    
